<svg xmlns="http://www.w3.org/2000/svg" viewBox="0 0 120 120" fill="none">
  <!-- Bracket top-left -->
  <path d="M6 38V8H36" stroke="#F5A623" stroke-width="5" stroke-linecap="square"/>
  <!-- Bracket top-right -->
  <path d="M114 38V8H84" stroke="#F5A623" stroke-width="5" stroke-linecap="square"/>

  <!-- Shield -->
  <path d="M16 42v28c0 20 15 30 44 38 29-8 44-18 44-38V42L60 28 16 42Z"
        fill="rgba(245,166,35,.12)" stroke="#F5A623" stroke-width="2.5"/>

  <!-- Crown -->
  <path d="M38 35l5 8L60 28l17 15 5-8v11H38V35Z" fill="#F5A623"/>

  <!-- Eagle left wing upper -->
  <path d="M60 72 L10 57 L18 68 L10 74 L60 70Z" fill="#F5A623"/>
  <!-- Eagle left wing lower feathers -->
  <path d="M22 71 L8 76 L16 80 L34 74Z" fill="#F5A623" opacity=".75"/>

  <!-- Eagle right wing upper -->
  <path d="M60 72 L110 57 L102 68 L110 74 L60 70Z" fill="#F5A623"/>
  <!-- Eagle right wing lower feathers -->
  <path d="M98 71 L112 76 L104 80 L86 74Z" fill="#F5A623" opacity=".75"/>

  <!-- Eagle body -->
  <ellipse cx="60" cy="82" rx="11" ry="15" fill="#F5A623"/>

  <!-- Eagle head -->
  <circle cx="60" cy="61" r="10" fill="#F5A623"/>

  <!-- Beak -->
  <path d="M68 64 L76 67 L68 70Z" fill="#1A2B4A"/>

  <!-- Eye -->
  <circle cx="65" cy="59" r="2.5" fill="#1A2B4A"/>

  <!-- Talons left -->
  <path d="M50 96L47 104M53 97L52 104M56 97L58 103" stroke="#F5A623" stroke-width="2.5" stroke-linecap="round"/>
  <!-- Talons right -->
  <path d="M70 96L73 104M67 97L68 104M64 97L62 103" stroke="#F5A623" stroke-width="2.5" stroke-linecap="round"/>
</svg>
